<?xml version="1.0" standalone="no"?>
<!DOCTYPE svg PUBLIC "-//W3C//DTD SVG 20010904//EN"
 "http://www.w3.org/TR/2001/REC-SVG-20010904/DTD/svg10.dtd">
<svg version="1.0" xmlns="http://www.w3.org/2000/svg"
 width="500.000000pt" height="500.000000pt" viewBox="0 0 500.000000 500.000000"
 preserveAspectRatio="xMidYMid meet">
<metadata>
Created by potrace 1.14, written by Peter Selinger 2001-2017
</metadata>
<g transform="translate(0.000000,500.000000) scale(0.100000,-0.100000)"
fill="#000000" stroke="none">
<path d="M2245 4573 c-295 -36 -491 -92 -727 -208 -306 -151 -582 -394 -777
-684 -66 -98 -147 -246 -181 -331 -12 -30 -28 -68 -35 -85 -52 -119 -108 -371
-121 -545 -30 -378 37 -730 203 -1064 46 -93 78 -147 160 -273 14 -20 -3 -38
-376 -412 l-391 -390 0 -291 0 -290 200 0 200 0 441 441 c394 394 442 439 457
427 98 -81 425 -230 601 -274 54 -13 161 -36 191 -40 19 -2 44 -6 55 -9 83
-17 358 -23 475 -10 390 43 729 178 1040 413 107 81 294 271 377 382 145 195
238 374 313 598 21 64 41 133 44 152 3 19 10 50 15 69 6 18 13 59 17 90 3 31
9 65 11 76 12 48 10 395 -3 490 -115 842 -708 1509 -1524 1715 -41 10 -93 21
-115 24 -50 8 -104 17 -130 23 -25 6 -380 11 -420 6z m341 -597 c415 -48 781
-272 1027 -628 58 -83 110 -185 98 -192 -5 -3 -12 4 -16 17 -4 12 -8 24 -9 27
-2 3 -8 17 -14 32 -6 14 -17 30 -24 35 -7 4 -19 19 -26 33 -25 52 -52 85 -145
177 -88 89 -114 113 -120 113 -4 0 -23 11 -43 25 -20 14 -33 25 -28 25 14 0
-110 59 -124 60 -7 0 -10 5 -7 10 3 6 3 10 -2 11 -14 1 -37 8 -97 29 -33 11
-67 20 -76 20 -9 0 -21 5 -27 11 -7 7 -22 13 -35 15 -13 2 -45 7 -73 11 -129
21 -506 -2 -489 -29 3 -4 -3 -8 -14 -8 -10 0 -45 -9 -78 -21 -57 -20 -80 -27
-97 -28 -5 -1 -5 -5 -2 -11 3 -5 -7 -13 -22 -16 -27 -7 -93 -42 -103 -54 -3
-4 -25 -19 -50 -33 -25 -14 -51 -35 -58 -47 -7 -11 -17 -20 -23 -20 -11 0
-119 -103 -119 -114 0 -4 -15 -22 -32 -40 -18 -18 -41 -46 -50 -62 -10 -16
-31 -50 -48 -77 -16 -26 -30 -49 -31 -52 -8 -34 -13 -44 -20 -39 -5 3 -9 2
-10 -3 -1 -17 -8 -40 -28 -97 -12 -33 -21 -68 -21 -78 0 -11 -4 -17 -9 -14 -5
3 -16 -36 -24 -87 -26 -156 -13 -447 23 -522 5 -11 21 -57 35 -102 14 -45 32
-87 40 -93 8 -7 15 -18 15 -25 0 -16 50 -104 50 -90 1 6 7 -3 16 -20 31 -63
37 -70 141 -180 31 -33 60 -59 65 -58 4 2 19 -13 34 -32 15 -20 29 -33 32 -31
2 3 16 -4 30 -14 13 -11 31 -20 38 -20 8 0 14 -4 14 -10 0 -7 45 -37 70 -46 3
-1 15 -5 27 -9 13 -4 21 -10 18 -14 -2 -4 35 -20 83 -35 48 -15 96 -31 107
-36 51 -24 184 -38 324 -36 136 3 298 22 286 34 -5 6 157 58 188 61 5 1 6 5 3
10 -5 7 6 13 39 20 3 1 17 9 33 19 15 9 50 31 77 47 27 17 61 42 74 57 14 16
29 28 34 28 11 0 127 117 127 128 0 4 12 19 28 33 38 34 132 189 132 217 0 7
5 10 10 7 6 -3 10 -3 11 2 1 14 8 37 29 97 11 33 20 67 20 77 0 9 4 19 9 21 9
3 13 21 32 143 11 78 4 341 -11 380 -6 17 -11 31 -11 33 5 17 -1 52 -9 47 -5
-3 -10 2 -10 11 0 18 -11 57 -37 128 -8 21 -12 40 -10 43 8 7 65 -153 86 -235
18 -73 22 -94 37 -187 9 -53 9 -290 0 -340 -4 -22 -9 -56 -12 -75 -16 -113
-68 -270 -129 -392 -77 -154 -154 -259 -280 -383 -202 -199 -435 -324 -722
-387 -142 -31 -415 -31 -560 0 -606 130 -1055 607 -1140 1212 -10 68 -10 318
0 385 73 515 411 946 892 1138 220 88 454 119 691 93z m274 -371 c14 -3 39 -8
55 -11 37 -6 115 -44 115 -56 0 -4 -11 -10 -25 -14 -17 -4 -31 -18 -40 -40
-17 -41 -49 -48 -39 -9 3 14 2 25 -2 26 -5 0 -16 2 -24 4 -83 21 -82 21 -153
-49 -71 -70 -83 -96 -43 -96 14 0 27 -4 30 -8 9 -14 -19 -57 -39 -61 -11 -2
-25 -11 -32 -20 -6 -10 -29 -25 -51 -35 -37 -17 -39 -20 -32 -47 11 -39 -8
-53 -64 -47 l-44 5 -7 -43 c-3 -24 -7 -47 -7 -51 0 -5 9 -13 21 -19 31 -16 99
3 103 30 2 11 16 27 32 35 16 9 28 21 27 26 -2 11 30 22 65 24 27 1 114 -76
107 -95 -3 -8 -11 -14 -19 -14 -8 0 -14 -4 -14 -10 0 -17 18 -11 33 11 19 26
13 48 -23 88 -32 34 -17 43 18 11 12 -11 25 -20 30 -20 5 0 15 -11 22 -25 7
-14 17 -25 22 -25 5 0 6 -4 3 -10 -12 -19 11 -10 25 10 18 26 50 26 50 1 0
-29 25 -43 77 -41 26 1 53 1 59 1 14 -1 10 -69 -5 -84 -14 -14 -102 -14 -140
0 -45 18 -47 17 -67 -15 l-16 -29 -64 31 c-55 27 -63 35 -66 61 -3 29 -5 30
-48 30 -62 -1 -169 -13 -205 -24 -16 -5 -27 -10 -23 -10 4 -1 -10 -19 -32 -41
-22 -22 -36 -40 -32 -40 4 0 -13 -11 -38 -24 -61 -31 -90 -82 -90 -161 0 -35
-5 -67 -12 -74 -11 -11 -10 -14 0 -18 10 -4 10 -8 0 -21 -10 -12 -10 -14 0 -8
8 5 12 0 12 -14 0 -12 10 -44 22 -71 19 -40 31 -52 68 -68 67 -28 137 -35 189
-16 45 16 52 14 87 -17 12 -11 28 -19 35 -18 32 5 39 -1 39 -36 0 -19 -4 -33
-9 -30 -17 11 -5 -26 16 -48 39 -42 83 -146 62 -146 -15 0 -39 -64 -32 -88 3
-12 16 -28 29 -37 15 -9 24 -25 24 -41 0 -31 24 -89 45 -111 13 -12 29 -14 77
-9 60 6 112 24 109 39 -2 11 23 36 32 30 4 -2 7 0 7 4 0 5 16 27 36 48 19 22
42 54 49 72 8 18 25 37 39 43 39 15 49 44 41 125 -6 63 -4 78 15 116 12 23 32
51 44 60 11 10 17 18 13 19 -5 0 1 13 12 29 12 16 21 34 21 40 0 6 4 11 9 11
5 0 21 29 35 65 25 62 26 102 2 90 -6 -3 -19 -8 -28 -11 -10 -4 -18 -10 -18
-14 0 -16 -38 -17 -52 -1 -8 9 -26 26 -39 38 -47 42 -70 72 -84 113 -9 26 -22
47 -46 73 -31 34 -36 47 -18 47 15 0 108 -100 110 -118 0 -4 9 -16 19 -27 10
-11 22 -32 25 -48 4 -15 17 -34 28 -42 19 -13 24 -13 46 2 35 22 100 92 117
126 9 16 14 45 12 65 -3 39 -10 42 -88 29 -20 -3 -30 4 -52 36 -31 46 -27 69
6 37 13 -11 36 -21 52 -21 16 0 40 0 54 -1 14 -1 39 2 55 7 81 20 101 14 111
-35 19 -103 22 -142 22 -242 1 -118 -29 -309 -49 -316 -5 -2 -9 -8 -9 -13 0
-21 -63 -168 -70 -164 -4 3 -14 -10 -21 -27 -27 -67 -220 -260 -287 -287 -17
-7 -30 -17 -27 -21 4 -7 -142 -70 -162 -70 -5 0 -14 -5 -21 -12 -6 -6 -17 -13
-24 -14 -66 -13 -130 -24 -163 -29 -50 -7 -214 -8 -257 0 -18 3 -44 7 -58 9
-55 9 -125 27 -135 35 -5 5 -41 21 -80 36 -38 16 -83 39 -98 51 -16 13 -33 24
-38 24 -9 0 -49 33 -108 90 -20 19 -39 33 -42 32 -13 -3 -31 58 -25 83 5 19
13 25 33 25 l26 0 -7 66 c-5 51 -4 70 8 83 13 15 20 45 17 84 -1 23 -123 147
-145 147 -9 0 -15 4 -12 8 8 13 -15 95 -33 117 -42 52 -61 87 -68 127 -4 24
-6 46 -5 50 1 4 -10 16 -24 27 -22 17 -25 26 -20 56 12 72 28 125 38 119 5 -3
8 0 7 7 -1 8 3 28 10 44 43 108 55 134 61 130 4 -3 15 13 25 34 9 22 27 48 39
59 11 11 29 32 39 46 9 14 35 31 57 37 22 7 37 16 34 20 -3 5 0 9 7 9 7 0 21
8 31 17 11 10 36 17 56 18 31 0 39 5 51 30 8 17 23 36 33 43 12 9 17 21 13 32
-5 15 5 22 50 39 31 12 60 21 65 21 6 0 10 4 10 9 0 9 34 20 88 28 l34 5 -21
-21 c-12 -12 -23 -21 -26 -21 -3 0 -27 -14 -55 -31 -38 -23 -50 -37 -50 -55 0
-24 0 -24 33 -8 17 9 40 23 49 31 10 9 43 17 75 19 101 7 141 22 193 72 35 34
36 34 105 29 39 -3 81 -8 95 -12z m-10 -155 c0 -5 -4 -10 -10 -10 -5 0 -10
-11 -10 -24 0 -25 20 -39 44 -30 13 5 13 2 3 -20 -7 -14 -15 -26 -19 -26 -5 0
-8 -6 -8 -14 0 -18 -22 -26 -71 -26 -29 0 -39 4 -39 16 0 13 7 15 29 11 24 -5
29 -3 29 11 -3 36 24 122 38 122 8 0 14 -4 14 -10z m226 -251 c-1 -15 9 -27
31 -38 18 -9 33 -23 33 -33 0 -14 -8 -16 -55 -12 -30 3 -62 1 -71 -4 -9 -5
-26 -7 -36 -4 -16 4 -19 11 -14 36 9 42 22 53 45 39 15 -10 22 -8 40 13 26 29
28 30 27 3z"/>
<path d="M2579 3365 c-4 -5 -7 -30 -8 -53 0 -24 -3 -48 -7 -53 -9 -15 30 -10
52 6 16 12 17 16 4 24 -8 5 -19 27 -25 48 -6 21 -13 34 -16 28z"/>
<path d="M2515 3300 c-25 -27 -10 -39 16 -13 12 11 17 23 11 27 -5 3 -17 -3
-27 -14z"/>
</g>
</svg>
